<svg xmlns="http://www.w3.org/2000/svg" version="1.1" xmlns:xlink="http://www.w3.org/1999/xlink" xmlns:svgjs="http://svgjs.dev/svgjs" width="1500" height="1500" viewBox="0 0 1500 1500"><rect width="1500" height="1500" fill="#000000"></rect><g transform="matrix(0.6666666666666666,0,0,0.6666666666666666,249.39393939393938,438.5856950067477)"><svg viewBox="0 0 396 247" data-background-color="#000000" preserveAspectRatio="xMidYMid meet" height="935" width="1500" xmlns="http://www.w3.org/2000/svg" xmlns:xlink="http://www.w3.org/1999/xlink"><g id="tight-bounds" transform="matrix(1,0,0,1,0.2400000000000091,-0.09999999999999432)"><svg viewBox="0 0 395.52 247.2" height="247.2" width="395.52"><g><svg></svg></g><g><svg viewBox="0 0 395.52 247.2" height="247.2" width="395.52"><g transform="matrix(1,0,0,1,75.54432,99.76378632781575)"><svg viewBox="0 0 244.43135999999998 47.67242734436848" height="47.67242734436848" width="244.43135999999998"><g><svg viewBox="0 0 244.43135999999998 47.67242734436848" height="47.67242734436848" width="244.43135999999998"><g><svg viewBox="0 0 312.7383416106177 60.994611608880554" height="47.67242734436848" width="244.43135999999998"><g transform="matrix(1,0,0,1,0,8.429790750576114)"><svg viewBox="0 0 244.43135999999998 44.135030107728326" height="44.135030107728326" width="244.43135999999998"><g id="textblocktransform"><svg viewBox="0 0 244.43135999999998 44.135030107728326" height="44.135030107728326" width="244.43135999999998" id="textblock"><g><svg viewBox="0 0 244.43135999999998 44.135030107728326" height="44.135030107728326" width="244.43135999999998"><g transform="matrix(1,0,0,1,0,0)"><svg width="244.43135999999998" viewBox="4.4 -37.9 213.48 38.55" height="44.135030107728326" data-palette-color="#ffffff"><path d="M4.4 0L4.4-34.1 8.6-34.1 8.6-4 24.1-4 24.1 0 4.4 0ZM31.1-12.45L31.1-12.45Q31.1-7.6 33.27-5.23 35.45-2.85 39.15-2.85L39.15-2.85Q42.8-2.85 44.85-5.2 46.9-7.55 46.9-12.25L46.9-12.25Q46.9-17.25 44.72-19.7 42.55-22.15 38.8-22.15L38.8-22.15Q35.05-22.15 33.07-19.73 31.1-17.3 31.1-12.45ZM26.85-12.5L26.85-12.5Q26.85-16.3 28.05-18.82 29.25-21.35 31.1-22.88 32.95-24.4 35.07-25.03 37.2-25.65 39.1-25.65L39.1-25.65Q40.9-25.65 43.02-25.08 45.15-24.5 46.95-23.03 48.75-21.55 49.95-19.07 51.15-16.6 51.15-12.8L51.15-12.8Q51.15-8.85 49.92-6.25 48.7-3.65 46.85-2.13 45-0.6 42.85 0.03 40.7 0.65 38.85 0.65L38.85 0.65Q36.95 0.65 34.85 0.05 32.75-0.55 30.97-2.02 29.2-3.5 28.02-6.05 26.85-8.6 26.85-12.5ZM59.8-12.45L59.8-12.45Q59.8-7.6 61.97-5.23 64.15-2.85 67.84-2.85L67.84-2.85Q71.5-2.85 73.55-5.2 75.59-7.55 75.59-12.25L75.59-12.25Q75.59-17.25 73.42-19.7 71.25-22.15 67.5-22.15L67.5-22.15Q63.75-22.15 61.77-19.73 59.8-17.3 59.8-12.45ZM55.55-12.5L55.55-12.5Q55.55-16.3 56.75-18.82 57.95-21.35 59.8-22.88 61.65-24.4 63.77-25.03 65.9-25.65 67.8-25.65L67.8-25.65Q69.59-25.65 71.72-25.08 73.84-24.5 75.65-23.03 77.45-21.55 78.65-19.07 79.84-16.6 79.84-12.8L79.84-12.8Q79.84-8.85 78.62-6.25 77.4-3.65 75.55-2.13 73.7-0.6 71.55 0.03 69.4 0.65 67.55 0.65L67.55 0.65Q65.65 0.65 63.55 0.05 61.45-0.55 59.67-2.02 57.9-3.5 56.72-6.05 55.55-8.6 55.55-12.5ZM85.64 0L85.64-37.45 89.64-37.9 89.64-15.35 100.79-25.15 106.29-25.15 95.39-15.6 106.69 0 101.64 0 92.44-13.05 89.64-10.6 89.64 0 85.64 0ZM111.49 0L111.49-34.1 120.59-34.1Q125.99-34.1 128.42-32.1 130.84-30.1 130.84-26L130.84-26Q130.84-24.1 130.32-22.7 129.79-21.3 129.14-20.35L129.14-20.35Q128.39-19.25 127.49-18.45L127.49-18.45Q128.69-18 129.74-17.3 130.79-16.6 131.59-15.6 132.39-14.6 132.87-13.23 133.34-11.85 133.34-10L133.34-10Q133.34-7.95 132.79-6.13 132.24-4.3 130.94-2.95 129.64-1.6 127.49-0.8 125.34 0 122.14 0L122.14 0 111.49 0ZM115.69-30.35L115.69-19.3 124.04-19.3Q124.74-19.85 125.29-20.75L125.29-20.75Q125.79-21.5 126.19-22.63 126.59-23.75 126.59-25.35L126.59-25.35Q126.59-28.3 125.07-29.33 123.54-30.35 120.79-30.35L120.79-30.35 115.69-30.35ZM115.69-15.8L115.69-3.75 122.49-3.75Q125.79-3.75 127.44-5.45 129.09-7.15 129.09-10L129.09-10Q129.09-11.25 128.77-12.3 128.44-13.35 127.64-14.13 126.84-14.9 125.49-15.35 124.14-15.8 122.14-15.8L122.14-15.8 115.69-15.8ZM142.29-12.45L142.29-12.45Q142.29-7.6 144.46-5.23 146.64-2.85 150.34-2.85L150.34-2.85Q153.99-2.85 156.04-5.2 158.09-7.55 158.09-12.25L158.09-12.25Q158.09-17.25 155.91-19.7 153.74-22.15 149.99-22.15L149.99-22.15Q146.24-22.15 144.26-19.73 142.29-17.3 142.29-12.45ZM138.04-12.5L138.04-12.5Q138.04-16.3 139.24-18.82 140.44-21.35 142.29-22.88 144.14-24.4 146.26-25.03 148.39-25.65 150.29-25.65L150.29-25.65Q152.09-25.65 154.21-25.08 156.34-24.5 158.14-23.03 159.94-21.55 161.14-19.07 162.34-16.6 162.34-12.8L162.34-12.8Q162.34-8.85 161.11-6.25 159.89-3.65 158.04-2.13 156.19-0.6 154.04 0.03 151.89 0.65 150.04 0.65L150.04 0.65Q148.14 0.65 146.04 0.05 143.94-0.55 142.16-2.02 140.39-3.5 139.21-6.05 138.04-8.6 138.04-12.5ZM170.99-12.45L170.99-12.45Q170.99-7.6 173.16-5.23 175.34-2.85 179.04-2.85L179.04-2.85Q182.69-2.85 184.74-5.2 186.79-7.55 186.79-12.25L186.79-12.25Q186.79-17.25 184.61-19.7 182.44-22.15 178.69-22.15L178.69-22.15Q174.94-22.15 172.96-19.73 170.99-17.3 170.99-12.45ZM166.74-12.5L166.74-12.5Q166.74-16.3 167.94-18.82 169.14-21.35 170.99-22.88 172.84-24.4 174.96-25.03 177.09-25.65 178.99-25.65L178.99-25.65Q180.79-25.65 182.91-25.08 185.04-24.5 186.84-23.03 188.64-21.55 189.84-19.07 191.04-16.6 191.04-12.8L191.04-12.8Q191.04-8.85 189.81-6.25 188.59-3.65 186.74-2.13 184.89-0.6 182.74 0.03 180.59 0.65 178.74 0.65L178.74 0.65Q176.84 0.65 174.74 0.05 172.64-0.55 170.86-2.02 169.09-3.5 167.91-6.05 166.74-8.6 166.74-12.5ZM196.83 0L196.83-37.45 200.83-37.9 200.83-15.35 211.98-25.15 217.48-25.15 206.58-15.6 217.88 0 212.83 0 203.63-13.05 200.83-10.6 200.83 0 196.83 0Z" opacity="1" transform="matrix(1,0,0,1,0,0)" fill="#ffffff" class="wordmark-text-0" data-fill-palette-color="primary" id="text-0"></path></svg></g></svg></g></svg></g></svg></g><g transform="matrix(1,0,0,1,254.85058136771207,0)"><svg viewBox="0 0 57.88776024290561 60.994611608880554" height="60.994611608880554" width="57.88776024290561"><g><svg xmlns="http://www.w3.org/2000/svg" xmlns:xlink="http://www.w3.org/1999/xlink" version="1.1" x="0" y="0" viewBox="7.484972161231376 4.99 83.67892976096715 88.17" enable-background="new 0 0 100 100" xml:space="preserve" height="60.994611608880554" width="57.88776024290561" class="icon-icon-0" data-fill-palette-color="accent" id="icon-0"><path d="M90.861 51.847C87.22 46.486 74.852 28.992 68.579 28.992H62.479C62.06 28.992 61.662 29.15 61.347 29.419L51.56 23.349V20.053C54.929 19.259 57.447 16.235 57.447 12.627 57.447 8.416 54.021 4.99 49.81 4.99S42.173 8.416 42.173 12.627A1.75 1.75 0 0 0 45.673 12.627 4.14 4.14 0 0 1 49.81 8.49C52.091 8.49 53.947 10.346 53.947 12.627S52.092 16.764 49.81 16.764A1.75 1.75 0 0 0 48.06 18.514V23.352L38.732 29.136A1.75 1.75 0 0 0 38.041 28.993H30.244C24.297 28.993 11.564 46.47 7.803 51.826A1.75 1.75 0 0 0 8.129 54.188L22.209 65.667A1.75 1.75 0 0 0 24.671 65.416L25.661 64.202V91.41C25.661 92.377 26.445 93.16 27.411 93.16H71.578A1.75 1.75 0 0 0 73.328 91.41V64.62L73.977 65.417C74.588 66.165 75.691 66.277 76.44 65.667L90.52 54.187A1.75 1.75 0 0 0 90.861 51.847M49.812 26.382L60.521 33.025A7.06 7.06 0 0 1 53.662 38.371H46.828A7.03 7.03 0 0 1 39.897 32.531zM75.586 61.847L72.936 58.598A1.75 1.75 0 0 0 69.83 59.703V89.658H29.162V59.285A1.75 1.75 0 0 0 26.056 58.18L23.066 61.847 11.61 52.508A175 175 0 0 1 18.795 43.16 126 126 0 0 1 21.823 39.62C25.579 35.402 28.792 32.491 30.245 32.491H36.352C36.425 33.174 36.567 33.836 36.765 34.473A10.56 10.56 0 0 0 46.828 41.871H53.662A10.58 10.58 0 0 0 64.17 32.491H68.579C70.006 32.491 72.843 34.947 76.173 38.614A112 112 0 0 1 80.515 43.726 160 160 0 0 1 87.059 52.493z" fill="#dedede" data-fill-palette-color="accent"></path></svg></g></svg></g></svg></g></svg></g></svg></g><path d="M204.777 93.764L204.777 30.441 391.095 30.441 391.095 216.759 204.777 216.759 204.777 153.436 207.888 153.436 207.888 213.648 387.984 213.648 387.984 33.552 207.888 33.552 207.888 93.764Z" fill="#858b92" stroke="transparent" data-fill-palette-color="tertiary"></path></svg></g><defs></defs></svg><rect width="395.52" height="247.2" fill="none" stroke="none" visibility="hidden"></rect></g></svg></g></svg>